<svg width="89" height="31" viewBox="0 0 89 31" fill="none" xmlns="http://www.w3.org/2000/svg">
<rect width="89" height="31" rx="15.5" fill="#459E48"/>
<path d="M11.5928 20V10.1357H17.8545V11.4619H13.124V14.3398H17.6016V15.6113H13.124V18.6738H17.8545V20H11.5928ZM20.623 22.6113C20.5319 22.6113 20.4339 22.6068 20.3291 22.5977C20.2243 22.5931 20.124 22.5863 20.0283 22.5771V21.4082C20.1012 21.4173 20.181 21.4242 20.2676 21.4287C20.3587 21.4333 20.4453 21.4355 20.5273 21.4355C20.8737 21.4355 21.154 21.3535 21.3682 21.1895C21.5824 21.0299 21.7441 20.7633 21.8535 20.3896L21.9629 20.0068L19.2695 12.5762H20.876L22.9746 19.2686L22.5098 18.5029H23.0771L22.6191 19.2686L24.7109 12.5762H26.2764L23.5146 20.2803C23.305 20.8727 23.0726 21.3376 22.8174 21.6748C22.5622 22.0166 22.2591 22.2581 21.9082 22.3994C21.5573 22.5407 21.1289 22.6113 20.623 22.6113ZM30.6172 20.1436C29.8926 20.1436 29.2705 19.9886 28.751 19.6787C28.2314 19.3643 27.8304 18.9199 27.5479 18.3457C27.2699 17.7715 27.1309 17.0924 27.1309 16.3086V16.3018C27.1309 15.527 27.2699 14.8503 27.5479 14.2715C27.8304 13.6927 28.2269 13.2415 28.7373 12.918C29.2523 12.5944 29.8538 12.4326 30.542 12.4326C31.2347 12.4326 31.8294 12.5876 32.3262 12.8975C32.8275 13.2074 33.2126 13.6426 33.4814 14.2031C33.7503 14.7591 33.8848 15.4108 33.8848 16.1582V16.6777H27.8828V15.6182H33.1465L32.4355 16.6025V16.0078C32.4355 15.4792 32.3535 15.0417 32.1895 14.6953C32.0299 14.3444 31.8089 14.0824 31.5264 13.9092C31.2438 13.736 30.918 13.6494 30.5488 13.6494C30.1797 13.6494 29.8493 13.7406 29.5576 13.9229C29.2705 14.1006 29.0426 14.3649 28.874 14.7158C28.71 15.0667 28.6279 15.4974 28.6279 16.0078V16.6025C28.6279 17.0902 28.71 17.5072 28.874 17.8535C29.0381 18.1999 29.2705 18.4642 29.5713 18.6465C29.8766 18.8288 30.2367 18.9199 30.6514 18.9199C30.9704 18.9199 31.2438 18.8766 31.4717 18.79C31.7041 18.6989 31.8932 18.5872 32.0391 18.4551C32.1895 18.3229 32.292 18.193 32.3467 18.0654L32.374 18.0107H33.8096L33.7959 18.0723C33.7321 18.3184 33.6204 18.5645 33.4609 18.8105C33.3014 19.0521 33.0895 19.2731 32.8252 19.4736C32.5654 19.6742 32.251 19.8359 31.8818 19.959C31.5173 20.082 31.0957 20.1436 30.6172 20.1436ZM38.3486 20.1436C37.7516 20.1436 37.2321 20.057 36.79 19.8838C36.348 19.7061 35.9971 19.4622 35.7373 19.1523C35.4775 18.8379 35.3249 18.4733 35.2793 18.0586V18.0449H36.7695V18.0586C36.8652 18.3366 37.0475 18.5622 37.3164 18.7354C37.5853 18.9085 37.9408 18.9951 38.3828 18.9951C38.6882 18.9951 38.9548 18.9518 39.1826 18.8652C39.415 18.7786 39.5973 18.6579 39.7295 18.5029C39.8617 18.348 39.9277 18.1702 39.9277 17.9697V17.9561C39.9277 17.7236 39.8343 17.5277 39.6475 17.3682C39.4606 17.2087 39.153 17.0788 38.7246 16.9785L37.5352 16.7051C37.0703 16.6003 36.6852 16.4567 36.3799 16.2744C36.0745 16.0921 35.849 15.8688 35.7031 15.6045C35.5573 15.3356 35.4844 15.0212 35.4844 14.6611V14.6543C35.4844 14.2214 35.6074 13.8385 35.8535 13.5059C36.0996 13.1686 36.4391 12.9066 36.8721 12.7197C37.3096 12.5283 37.8086 12.4326 38.3691 12.4326C38.9342 12.4326 39.4264 12.5215 39.8457 12.6992C40.2695 12.8724 40.6045 13.1139 40.8506 13.4238C41.0967 13.7292 41.2425 14.0846 41.2881 14.4902V14.4971H39.8662V14.4834C39.7979 14.2236 39.6338 14.0072 39.374 13.834C39.1188 13.6608 38.7816 13.5742 38.3623 13.5742C38.0934 13.5742 37.8542 13.6175 37.6445 13.7041C37.4349 13.7861 37.2686 13.9023 37.1455 14.0527C37.027 14.1986 36.9678 14.3717 36.9678 14.5723V14.5859C36.9678 14.7409 37.0065 14.8776 37.084 14.9961C37.166 15.11 37.2936 15.2126 37.4668 15.3037C37.64 15.3903 37.8633 15.4678 38.1367 15.5361L39.3193 15.8027C40.0303 15.9714 40.5589 16.2152 40.9053 16.5342C41.2562 16.8532 41.4316 17.2816 41.4316 17.8193V17.833C41.4316 18.2887 41.2972 18.6921 41.0283 19.043C40.7594 19.3893 40.3926 19.6605 39.9277 19.8564C39.4674 20.0479 38.9411 20.1436 38.3486 20.1436ZM50.1543 20.1436C49.4297 20.1436 48.8031 19.9886 48.2744 19.6787C47.7503 19.3688 47.347 18.9268 47.0645 18.3525C46.7819 17.7738 46.6406 17.0879 46.6406 16.2949V16.2812C46.6406 15.4837 46.7819 14.7979 47.0645 14.2236C47.3516 13.6494 47.7572 13.2074 48.2812 12.8975C48.8099 12.5876 49.4342 12.4326 50.1543 12.4326C50.8789 12.4326 51.5033 12.5876 52.0273 12.8975C52.5514 13.2028 52.9548 13.6449 53.2373 14.2236C53.5244 14.7979 53.668 15.4837 53.668 16.2812V16.2949C53.668 17.0879 53.5244 17.7738 53.2373 18.3525C52.9548 18.9268 52.5514 19.3688 52.0273 19.6787C51.5078 19.9886 50.8835 20.1436 50.1543 20.1436ZM50.1543 18.8994C50.5781 18.8994 50.9382 18.7969 51.2344 18.5918C51.5306 18.3822 51.7562 18.0837 51.9111 17.6963C52.0661 17.3089 52.1436 16.8418 52.1436 16.2949V16.2812C52.1436 15.7298 52.0661 15.2604 51.9111 14.873C51.7562 14.4857 51.5306 14.1895 51.2344 13.9844C50.9382 13.7747 50.5781 13.6699 50.1543 13.6699C49.7305 13.6699 49.3704 13.7747 49.0742 13.9844C48.778 14.1895 48.5501 14.4857 48.3906 14.873C48.2357 15.2604 48.1582 15.7298 48.1582 16.2812V16.2949C48.1582 16.8418 48.2357 17.3089 48.3906 17.6963C48.5501 18.0837 48.778 18.3822 49.0742 18.5918C49.3704 18.7969 49.7305 18.8994 50.1543 18.8994ZM55.4316 22.4746V12.5762H56.915V13.7451H57.0312C57.1725 13.4717 57.3548 13.2393 57.5781 13.0479C57.806 12.8564 58.0658 12.7083 58.3574 12.6035C58.6491 12.4987 58.9681 12.4463 59.3145 12.4463C59.9388 12.4463 60.4811 12.6058 60.9414 12.9248C61.4017 13.2393 61.7572 13.6836 62.0078 14.2578C62.263 14.8275 62.3906 15.502 62.3906 16.2812V16.2949C62.3906 17.0788 62.2653 17.7578 62.0146 18.332C61.764 18.9017 61.4085 19.3438 60.9482 19.6582C60.488 19.9681 59.9434 20.123 59.3145 20.123C58.9727 20.123 58.6536 20.0706 58.3574 19.9658C58.0612 19.8564 57.7992 19.7061 57.5713 19.5146C57.3434 19.3232 57.1634 19.0931 57.0312 18.8242H56.915V22.4746H55.4316ZM58.8906 18.8516C59.3053 18.8516 59.6608 18.749 59.957 18.5439C60.2533 18.3389 60.4788 18.0449 60.6338 17.6621C60.7933 17.2793 60.873 16.8236 60.873 16.2949V16.2812C60.873 15.748 60.7933 15.29 60.6338 14.9072C60.4788 14.5244 60.2533 14.2305 59.957 14.0254C59.6608 13.8203 59.3053 13.7178 58.8906 13.7178C58.4805 13.7178 58.125 13.8226 57.8242 14.0322C57.5234 14.2373 57.2933 14.5312 57.1338 14.9141C56.9743 15.2923 56.8945 15.748 56.8945 16.2812V16.2949C56.8945 16.819 56.9743 17.2725 57.1338 17.6553C57.2933 18.0381 57.5234 18.3343 57.8242 18.5439C58.125 18.749 58.4805 18.8516 58.8906 18.8516ZM67.2852 20.1436C66.5605 20.1436 65.9385 19.9886 65.4189 19.6787C64.8994 19.3643 64.4984 18.9199 64.2158 18.3457C63.9378 17.7715 63.7988 17.0924 63.7988 16.3086V16.3018C63.7988 15.527 63.9378 14.8503 64.2158 14.2715C64.4984 13.6927 64.8949 13.2415 65.4053 12.918C65.9202 12.5944 66.5218 12.4326 67.21 12.4326C67.9027 12.4326 68.4974 12.5876 68.9941 12.8975C69.4954 13.2074 69.8805 13.6426 70.1494 14.2031C70.4183 14.7591 70.5527 15.4108 70.5527 16.1582V16.6777H64.5508V15.6182H69.8145L69.1035 16.6025V16.0078C69.1035 15.4792 69.0215 15.0417 68.8574 14.6953C68.6979 14.3444 68.4769 14.0824 68.1943 13.9092C67.9118 13.736 67.5859 13.6494 67.2168 13.6494C66.8477 13.6494 66.5173 13.7406 66.2256 13.9229C65.9385 14.1006 65.7106 14.3649 65.542 14.7158C65.3779 15.0667 65.2959 15.4974 65.2959 16.0078V16.6025C65.2959 17.0902 65.3779 17.5072 65.542 17.8535C65.7061 18.1999 65.9385 18.4642 66.2393 18.6465C66.5446 18.8288 66.9046 18.9199 67.3193 18.9199C67.6383 18.9199 67.9118 18.8766 68.1396 18.79C68.3721 18.6989 68.5612 18.5872 68.707 18.4551C68.8574 18.3229 68.96 18.193 69.0146 18.0654L69.042 18.0107H70.4775L70.4639 18.0723C70.4001 18.3184 70.2884 18.5645 70.1289 18.8105C69.9694 19.0521 69.7575 19.2731 69.4932 19.4736C69.2334 19.6742 68.9189 19.8359 68.5498 19.959C68.1852 20.082 67.7637 20.1436 67.2852 20.1436ZM72.3164 20V12.5762H73.7998V13.6973H73.916C74.0983 13.3008 74.3672 12.9909 74.7227 12.7676C75.0781 12.5443 75.527 12.4326 76.0693 12.4326C76.9033 12.4326 77.5413 12.6719 77.9834 13.1504C78.4255 13.6289 78.6465 14.3102 78.6465 15.1943V20H77.1562V15.543C77.1562 14.9232 77.0264 14.4629 76.7666 14.1621C76.5114 13.8568 76.1104 13.7041 75.5635 13.7041C75.2035 13.7041 74.8913 13.7839 74.627 13.9434C74.3626 14.0983 74.1576 14.3216 74.0117 14.6133C73.8704 14.9004 73.7998 15.2445 73.7998 15.6455V20H72.3164Z" fill="#EAE8E9"/>
</svg>
