<svg width="57" height="51" viewBox="0 0 57 51" fill="none" xmlns="http://www.w3.org/2000/svg">
<path d="M36.8333 2.84093e-07C38.263 -0.000452141 39.6399 0.539485 40.6882 1.51157C41.7365 2.48366 42.3786 3.81606 42.4858 5.24167L42.5 5.66667C42.5001 6.36064 42.7549 7.03045 43.216 7.54905C43.6772 8.06765 44.3126 8.39897 45.0018 8.48017L45.3333 8.5H48.1667C50.3348 8.49988 52.421 9.32825 53.9984 10.8156C55.5759 12.303 56.5253 14.337 56.6525 16.5013L56.6667 17V42.5C56.6668 44.6681 55.8384 46.7543 54.351 48.3317C52.8637 49.9092 50.8297 50.8586 48.6653 50.9858L48.1667 51H8.5C6.3319 51.0001 4.24571 50.1717 2.66826 48.6844C1.09081 47.197 0.141362 45.163 0.014167 42.9987L1.32046e-08 42.5V17C-0.000120762 14.8319 0.828255 12.7457 2.31564 11.1683C3.80302 9.59081 5.83697 8.64136 8.00133 8.51417L8.5 8.5H11.3333C12.0848 8.5 12.8054 8.20149 13.3368 7.67014C13.8682 7.13878 14.1667 6.41811 14.1667 5.66667C14.1662 4.23703 14.7062 2.86006 15.6782 1.81178C16.6503 0.7635 17.9827 0.12139 19.4083 0.0141673L19.8333 2.84093e-07H36.8333ZM28.3333 19.8333C26.227 19.8332 24.1957 20.6151 22.633 22.0274C21.0704 23.4398 20.0879 25.382 19.8758 27.4777L19.8447 27.9083L19.8333 28.3333L19.8447 28.7583C19.9278 30.4193 20.4964 32.0194 21.48 33.3605C22.4636 34.7015 23.8189 35.7245 25.3782 36.3028C26.9375 36.8812 28.6322 36.9894 30.2523 36.614C31.8725 36.2387 33.347 35.3964 34.4931 34.1913C35.6393 32.9862 36.4067 31.4714 36.7004 29.8345C36.9941 28.1976 36.8012 26.5105 36.1455 24.9821C35.4898 23.4537 34.4002 22.1513 33.0116 21.2361C31.623 20.3209 29.9964 19.8332 28.3333 19.8333Z" fill="white"/>
</svg>
