<svg width="324" height="522" viewBox="0 0 324 522" fill="none" xmlns="http://www.w3.org/2000/svg">
<path d="M123.5 125H201L298 590H28L123.5 125Z" fill="#2A4680"/>
<path d="M159.889 265H167.278L170 321H156L159.889 265Z" fill="#78CEDB"/>
<path d="M159 377H168.5L172 446H154L159 377Z" fill="#78CEDB"/>
<g filter="url(#filter0_d_151_5)">
<path fill-rule="evenodd" clip-rule="evenodd" d="M191.922 93C196.411 93.0002 200.811 94.2502 204.63 96.6101C208.449 98.97 211.535 102.347 213.543 106.362L224.713 128.693C226.679 127.887 228.613 127.016 230.515 126.081C232.428 125.126 234.642 124.97 236.671 125.647C238.699 126.324 240.375 127.779 241.33 129.692C242.286 131.605 242.442 133.819 241.765 135.847C241.088 137.875 239.633 139.551 237.72 140.507C235.783 141.369 233.835 142.207 231.877 143.021L239.622 158.518C241.303 161.878 242.177 165.584 242.176 169.341V189.706C242.176 193.107 241.459 196.471 240.07 199.576C238.681 202.681 236.653 205.458 234.118 207.725V217.912C234.118 221.118 232.844 224.192 230.577 226.459C228.31 228.726 225.235 230 222.029 230C218.823 230 215.749 228.726 213.482 226.459C211.215 224.192 209.941 221.118 209.941 217.912V213.882H113.235V217.912C113.235 221.118 111.962 224.192 109.695 226.459C107.428 228.726 104.353 230 101.147 230C97.9411 230 94.8664 228.726 92.5994 226.459C90.3324 224.192 89.0588 221.118 89.0588 217.912V207.725C84.1107 203.293 81 196.862 81 189.706V169.333C81.0015 165.581 81.8761 161.882 83.5546 158.526L91.2347 143.15C89.2898 142.333 87.3692 141.455 85.4726 140.515C83.5694 139.547 82.1227 137.87 81.4443 135.846C80.7659 133.821 80.9103 131.611 81.8462 129.692C82.3189 128.744 82.9737 127.899 83.7732 127.205C84.5726 126.511 85.5011 125.981 86.5055 125.645C87.5099 125.31 88.5705 125.176 89.6267 125.251C90.6829 125.326 91.714 125.608 92.6611 126.081C94.5684 127.022 96.5025 127.892 98.4635 128.693L109.633 106.37C111.64 102.353 114.726 98.9749 118.545 96.6135C122.364 94.2522 126.765 93.0009 131.255 93H191.922ZM125.324 165.529C122.118 165.529 119.043 166.803 116.776 169.07C114.509 171.337 113.235 174.412 113.235 177.618C113.235 180.824 114.509 183.898 116.776 186.165C119.043 188.432 122.118 189.706 125.324 189.706C128.53 189.706 131.604 188.432 133.871 186.165C136.138 183.898 137.412 180.824 137.412 177.618C137.412 174.412 136.138 171.337 133.871 169.07C131.604 166.803 128.53 165.529 125.324 165.529ZM197.853 165.529C194.647 165.529 191.572 166.803 189.305 169.07C187.038 171.337 185.765 174.412 185.765 177.618C185.765 180.824 187.038 183.898 189.305 186.165C191.572 188.432 194.647 189.706 197.853 189.706C201.059 189.706 204.134 188.432 206.401 186.165C208.668 183.898 209.941 180.824 209.941 177.618C209.941 174.412 208.668 171.337 206.401 169.07C204.134 166.803 201.059 165.529 197.853 165.529ZM191.922 109.118H131.255C129.928 109.117 128.622 109.445 127.453 110.07C126.283 110.696 125.286 111.6 124.55 112.704L124.05 113.574L113.816 134.027C126.291 137.767 143.101 141.353 161.588 141.353C178.85 141.353 194.637 138.226 206.798 134.769L209.353 134.027L199.126 113.574C198.533 112.388 197.656 111.367 196.574 110.6C195.492 109.834 194.237 109.347 192.921 109.182L191.93 109.118H191.922Z" fill="url(#paint0_linear_151_5)"/>
</g>
<path d="M124.379 105.798C124.856 104.706 125.935 104 127.127 104H194.881C196.042 104 197.098 104.669 197.594 105.719L209.696 131.348C210.412 132.865 209.745 134.675 208.216 135.364L197.183 140.335C196.917 140.455 196.635 140.535 196.346 140.574L163.453 144.95C163.205 144.983 162.954 144.985 162.705 144.956L125.669 140.575C125.335 140.536 125.011 140.441 124.709 140.294L114.59 135.37C113.143 134.665 112.509 132.945 113.154 131.47L124.379 105.798Z" fill="#72CCDA"/>
<circle cx="125" cy="178" r="13" fill="#72CCDA"/>
<circle cx="198" cy="178" r="13" fill="#72CCDA"/>
<path opacity="0.48" d="M297 162C297 236.558 236.558 297 162 297C87.4414 297 26.9999 236.558 26.9999 162C26.9999 87.4416 87.4414 27 162 27C236.558 27 297 87.4416 297 162ZM47.3849 162C47.3849 225.3 98.6998 276.615 162 276.615C225.3 276.615 276.615 225.3 276.615 162C276.615 98.6999 225.3 47.385 162 47.385C98.6998 47.385 47.3849 98.6999 47.3849 162Z" fill="url(#paint1_linear_151_5)"/>
<path opacity="0.26" d="M324 162C324 251.47 251.47 324 162 324C72.5299 324 0 251.47 0 162C0 72.5299 72.5299 0 162 0C251.47 0 324 72.5299 324 162ZM24.786 162C24.786 237.781 86.2188 299.214 162 299.214C237.781 299.214 299.214 237.781 299.214 162C299.214 86.2188 237.781 24.786 162 24.786C86.2188 24.786 24.786 86.2188 24.786 162Z" fill="url(#paint2_linear_151_5)"/>
<defs>
<filter id="filter0_d_151_5" x="77" y="93" width="169.18" height="145" filterUnits="userSpaceOnUse" color-interpolation-filters="sRGB">
<feFlood flood-opacity="0" result="BackgroundImageFix"/>
<feColorMatrix in="SourceAlpha" type="matrix" values="0 0 0 0 0 0 0 0 0 0 0 0 0 0 0 0 0 0 127 0" result="hardAlpha"/>
<feOffset dy="4"/>
<feGaussianBlur stdDeviation="2"/>
<feComposite in2="hardAlpha" operator="out"/>
<feColorMatrix type="matrix" values="0 0 0 0 0 0 0 0 0 0 0 0 0 0 0 0 0 0 0.25 0"/>
<feBlend mode="normal" in2="BackgroundImageFix" result="effect1_dropShadow_151_5"/>
<feBlend mode="normal" in="SourceGraphic" in2="effect1_dropShadow_151_5" result="shape"/>
</filter>
<linearGradient id="paint0_linear_151_5" x1="161.59" y1="93" x2="161.59" y2="230" gradientUnits="userSpaceOnUse">
<stop stop-color="#8A6C95"/>
<stop offset="1" stop-color="#2A4682"/>
</linearGradient>
<linearGradient id="paint1_linear_151_5" x1="160.316" y1="297" x2="163.684" y2="27" gradientUnits="userSpaceOnUse">
<stop stop-color="#72CCD9"/>
<stop offset="0.524038" stop-color="#27447E"/>
<stop offset="1" stop-color="#8A6C94"/>
</linearGradient>
<linearGradient id="paint2_linear_151_5" x1="162" y1="0" x2="162" y2="324" gradientUnits="userSpaceOnUse">
<stop stop-color="#3E4245"/>
<stop offset="1" stop-color="#9AA4AB"/>
</linearGradient>
</defs>
</svg>
