<svg width="42" height="43" viewBox="0 0 42 43" fill="none" xmlns="http://www.w3.org/2000/svg">
<g filter="url(#filter0_d_205_14)">
<rect x="0.799805" width="40" height="40" rx="20" fill="#49494A"/>
<path fill-rule="evenodd" clip-rule="evenodd" d="M16.0708 14.2729C16.0708 12.9836 16.5647 11.7472 17.4437 10.8355C18.3228 9.92389 19.5151 9.41174 20.7583 9.41174C22.0015 9.41174 23.1938 9.92389 24.0729 10.8355C24.9519 11.7472 25.4458 12.9836 25.4458 14.2729C25.4458 15.5621 24.9519 16.7985 24.0729 17.7102C23.1938 18.6218 22.0015 19.134 20.7583 19.134C19.5151 19.134 18.3228 18.6218 17.4437 17.7102C16.5647 16.7985 16.0708 15.5621 16.0708 14.2729ZM16.0708 21.5645C14.5168 21.5645 13.0264 22.2047 11.9276 23.3443C10.8288 24.4838 10.2114 26.0294 10.2114 27.6409C10.2114 28.6078 10.5818 29.5352 11.2411 30.2189C11.9004 30.9026 12.7946 31.2867 13.7271 31.2867H27.7896C28.722 31.2867 29.6162 30.9026 30.2755 30.2189C30.9348 29.5352 31.3052 28.6078 31.3052 27.6409C31.3052 26.0294 30.6879 24.4838 29.589 23.3443C28.4902 22.2047 26.9998 21.5645 25.4458 21.5645H16.0708Z" fill="white"/>
</g>
<defs>
<filter id="filter0_d_205_14" x="-0.000195324" y="0" width="41.6" height="42.8" filterUnits="userSpaceOnUse" color-interpolation-filters="sRGB">
<feFlood flood-opacity="0" result="BackgroundImageFix"/>
<feColorMatrix in="SourceAlpha" type="matrix" values="0 0 0 0 0 0 0 0 0 0 0 0 0 0 0 0 0 0 127 0" result="hardAlpha"/>
<feOffset dy="2"/>
<feGaussianBlur stdDeviation="0.4"/>
<feComposite in2="hardAlpha" operator="out"/>
<feColorMatrix type="matrix" values="0 0 0 0 0 0 0 0 0 0 0 0 0 0 0 0 0 0 0.25 0"/>
<feBlend mode="normal" in2="BackgroundImageFix" result="effect1_dropShadow_205_14"/>
<feBlend mode="normal" in="SourceGraphic" in2="effect1_dropShadow_205_14" result="shape"/>
</filter>
</defs>
</svg>
