<svg width="207" height="207" viewBox="0 0 207 207" fill="none" xmlns="http://www.w3.org/2000/svg">
<g clip-path="url(#clip0_78_251)">
<path d="M44.7594 26.0759C46.0612 24.9932 46.8866 23.4433 47.0584 21.7589C47.2303 20.0745 46.7348 18.3898 45.6785 17.0666C44.6222 15.7434 43.0891 14.8871 41.4085 14.6815C39.7278 14.4759 38.0336 14.9375 36.6895 15.9671L23.4445 26.5356C15.9335 32.5313 10.7694 40.9767 8.85538 50.3948L4.18147 73.3809C3.84004 75.0626 4.18064 76.8111 5.12834 78.2416C6.07604 79.6722 7.55321 80.6676 9.23489 81.0091C10.9166 81.3505 12.665 81.0099 14.0955 80.0622C15.5261 79.1145 16.5216 77.6373 16.863 75.9556L21.5269 52.9764C22.8378 46.5324 26.3725 40.7543 31.5128 36.6529L44.7594 26.0759Z" fill="#F67173"/>
<g filter="url(#filter0_d_78_251)">
<path fill-rule="evenodd" clip-rule="evenodd" d="M50.0521 72.2443C49.5877 63.0102 52.6599 53.9462 58.6433 46.8976C64.6266 39.849 73.0713 35.3456 82.2582 34.3042L87.0318 33.7628L86.3027 27.3352C86.0449 25.0623 86.7006 22.7801 88.1255 20.9906C89.5504 19.2011 91.6278 18.051 93.9008 17.7932C96.1737 17.5354 98.4559 18.191 100.245 19.6159C102.035 21.0409 103.185 23.1183 103.443 25.3912L104.172 31.8187L108.945 31.2773C118.132 30.2347 127.371 32.7324 134.781 38.262C142.191 43.7915 147.215 51.9372 148.831 61.0407L154.16 91.1124C156.201 102.575 161.34 113.261 169.018 122.013C170.607 123.821 171.7 126.01 172.192 128.366C172.685 130.721 172.559 133.165 171.827 135.458C171.095 137.75 169.783 139.815 168.017 141.45C166.251 143.086 164.092 144.236 161.75 144.79L132.948 151.598L133.993 160.811C134.702 167.061 132.899 173.338 128.98 178.259C125.062 183.18 119.349 186.343 113.098 187.052C106.848 187.761 100.572 185.958 95.6505 182.039C90.7294 178.121 87.5665 172.408 86.8576 166.157L85.8127 156.944L56.2169 156.751C53.8115 156.735 51.4511 156.097 49.3651 154.899C47.2791 153.701 45.5384 151.984 44.3121 149.914C43.0858 147.845 42.4156 145.493 42.3666 143.088C42.3177 140.683 42.8916 138.307 44.0326 136.189C49.5561 125.94 52.1706 114.374 51.5933 102.746L50.0521 72.2443ZM99.7127 164.699C100.035 167.54 101.473 170.137 103.709 171.918C105.946 173.699 108.799 174.519 111.64 174.197C114.481 173.874 117.078 172.437 118.859 170.2C120.64 167.963 121.46 165.11 121.138 162.269L120.409 155.841L98.9836 158.272L99.7127 164.699Z" fill="url(#paint0_linear_78_251)"/>
</g>
<path d="M144.711 5.14455C143.671 6.50815 143.214 8.22911 143.443 9.92903C143.671 11.629 144.565 13.1687 145.928 14.2096L159.4 24.4875C164.627 28.4798 168.285 34.1834 169.732 40.6002L174.901 63.4623C175.088 64.2911 175.437 65.075 175.927 65.7691C176.417 66.4632 177.039 67.054 177.757 67.5077C178.475 67.9614 179.276 68.2692 180.113 68.4135C180.951 68.5578 181.808 68.5358 182.637 68.3486C183.466 68.1615 184.25 67.813 184.944 67.3229C185.638 66.8329 186.229 66.2109 186.683 65.4925C187.136 64.7741 187.444 63.9734 187.588 63.1361C187.733 62.2988 187.711 61.4412 187.523 60.6124L182.352 37.7418C180.234 28.3676 174.887 20.0365 167.248 14.2056L153.776 3.92763C152.412 2.88725 150.691 2.43099 148.992 2.6592C147.292 2.8874 145.752 3.78138 144.711 5.14455Z" fill="#F67173"/>
</g>
<defs>
<filter id="filter0_d_78_251" x="33.9148" y="17.7382" width="147.021" height="186.363" filterUnits="userSpaceOnUse" color-interpolation-filters="sRGB">
<feFlood flood-opacity="0" result="BackgroundImageFix"/>
<feColorMatrix in="SourceAlpha" type="matrix" values="0 0 0 0 0 0 0 0 0 0 0 0 0 0 0 0 0 0 127 0" result="hardAlpha"/>
<feOffset dy="8.44898"/>
<feGaussianBlur stdDeviation="4.22449"/>
<feComposite in2="hardAlpha" operator="out"/>
<feColorMatrix type="matrix" values="0 0 0 0 0 0 0 0 0 0 0 0 0 0 0 0 0 0 0.25 0"/>
<feBlend mode="normal" in2="BackgroundImageFix" result="effect1_dropShadow_78_251"/>
<feBlend mode="normal" in="SourceGraphic" in2="effect1_dropShadow_78_251" result="shape"/>
</filter>
<linearGradient id="paint0_linear_78_251" x1="93.9035" y1="17.7929" x2="113.101" y2="187.051" gradientUnits="userSpaceOnUse">
<stop stop-color="#8A6C95"/>
<stop offset="1" stop-color="#2A4682"/>
</linearGradient>
<clipPath id="clip0_78_251">
<rect width="207" height="207" fill="white"/>
</clipPath>
</defs>
</svg>
